<?xml version="1.0" encoding="UTF-8"?>
<svg id="uuid-2dfb551e-5998-4890-b77c-827cf2c0cbc7" data-name="Layer 1" xmlns="http://www.w3.org/2000/svg" viewBox="0 0 994.05 800">
  <path d="M630.77,220.3h30.32l86.41-86.41,4.24-36.69C590.93-44.74,345.49-29.44,203.55,131.38c-39.43,44.67-68.05,97.81-83.65,155.32,9.63-3.95,20.29-4.59,30.32-1.82l172.82-28.5s8.79-14.55,13.34-13.64c76.87-84.43,206.24-94.27,295-22.44h-.61Z" style="fill: #ea4335; stroke-width: 0px;"/>
  <path d="M870.59,286.7c-19.86-73.14-60.64-138.89-117.33-189.19l-121.27,121.27c51.21,41.84,80.38,104.88,79.13,171v21.53c59.61,0,107.93,48.32,107.93,107.93s-48.32,107.93-107.93,107.93h-215.87l-21.53,21.83v129.46l21.53,21.53h215.87c155.05,1.21,281.72-123.51,282.93-278.56.73-93.98-45.61-182.09-123.45-234.74Z" style="fill: #4285f4; stroke-width: 0px;"/>
  <path d="M279.07,798.78h215.87v-172.82h-215.87c-15.38,0-30.58-3.31-44.57-9.7l-30.32,9.4-87.01,86.41-7.58,30.32c48.8,36.85,108.34,56.66,169.48,56.39Z" style="fill: #34a853; stroke-width: 0px;"/>
  <path d="M279.07,238.19C124.02,239.11-.92,365.56,0,520.61c.52,86.58,40.95,168.08,109.59,220.87l125.22-125.22c-54.32-24.54-78.47-88.48-53.92-142.8,24.54-54.32,88.48-78.47,142.8-53.92,23.94,10.81,43.11,29.99,53.92,53.92l125.22-125.22c-53.28-69.65-136.06-110.37-223.75-110.06Z" style="fill: #fbbc05; stroke-width: 0px;"/>
</svg>