<?xml version="1.0" encoding="UTF-8"?>
<svg id="uuid-34bcfd71-0c46-44b3-b785-a7035098351b" data-name="Web-only" xmlns="http://www.w3.org/2000/svg" xmlns:xlink="http://www.w3.org/1999/xlink" viewBox="0 0 456 96">
  <defs>
    <style>
      .uuid-29d2deb1-dc3d-444b-94e2-1db1ebade9f9 {
        fill: url(#uuid-7d885e8a-7038-47cf-9d32-22e8f3328aa3);
      }

      .uuid-29d2deb1-dc3d-444b-94e2-1db1ebade9f9, .uuid-ea84345e-b652-4b45-903d-3afb32bd7af2, .uuid-4f23184c-c932-4b69-aee8-81e8ca3cb2a3, .uuid-ec4ea8cc-9aaa-4ec2-b1f3-295c83e56b55, .uuid-02810e18-f48d-4b82-97d9-8d89d4a99e39, .uuid-9ba0f7f2-b44c-42a5-8ea5-5c47643666f1 {
        stroke-width: 0px;
      }

      .uuid-ea84345e-b652-4b45-903d-3afb32bd7af2 {
        fill: none;
      }

      .uuid-4f23184c-c932-4b69-aee8-81e8ca3cb2a3 {
        fill: url(#uuid-bf651a4f-f39f-4561-bd8c-9777aa84a208);
      }

      .uuid-ec4ea8cc-9aaa-4ec2-b1f3-295c83e56b55 {
        fill: #e8eaea;
        opacity: .12;
      }

      .uuid-02810e18-f48d-4b82-97d9-8d89d4a99e39 {
        fill: #1d282d;
      }

      .uuid-9ba0f7f2-b44c-42a5-8ea5-5c47643666f1 {
        fill: url(#uuid-38fc78f7-90f6-4c97-a2c5-a766a23501b4);
        fill-opacity: .4;
      }
    </style>
    <linearGradient id="uuid-7d885e8a-7038-47cf-9d32-22e8f3328aa3" x1="72.91" y1="77.46" x2="11.34" y2="15.89" gradientUnits="userSpaceOnUse">
      <stop offset="0" stop-color="#11181b"/>
      <stop offset=".2" stop-color="#1e282d"/>
      <stop offset=".5" stop-color="#343e42"/>
      <stop offset=".8" stop-color="#8e9496"/>
      <stop offset="1" stop-color="#e8eaea" stop-opacity="0"/>
    </linearGradient>
    <linearGradient id="uuid-38fc78f7-90f6-4c97-a2c5-a766a23501b4" x1="-224.12" y1="1180.82" x2="-217.3" y2="1148.24" gradientTransform="translate(270 1222) scale(1 -1)" gradientUnits="userSpaceOnUse">
      <stop offset=".22" stop-color="#7e9ea9"/>
      <stop offset="1" stop-color="#919ea0" stop-opacity="0"/>
    </linearGradient>
    <linearGradient id="uuid-bf651a4f-f39f-4561-bd8c-9777aa84a208" x1="-27.98" y1="-443.49" x2="15.4" y2="-443.49" gradientTransform="translate(-23.03 492.38) rotate(10)" gradientUnits="userSpaceOnUse">
      <stop offset="0" stop-color="#0cc5ff"/>
      <stop offset="1" stop-color="#0a74ff"/>
    </linearGradient>
  </defs>
  <g>
    <path class="uuid-02810e18-f48d-4b82-97d9-8d89d4a99e39" d="M145.62,72.6l-29.69-29.48,1.65.53.16,27.62h-5.74V31.49h.27l29.32,29.53-1.33-.37-.11-27.94h5.63v39.89h-.16Z"/>
    <path class="uuid-02810e18-f48d-4b82-97d9-8d89d4a99e39" d="M153.64,41.05c0-.85.34-1.56,1.01-2.12.67-.57,1.4-.85,2.18-.85s1.54.28,2.18.85c.64.57.96,1.27.96,2.12s-.32,1.55-.96,2.1c-.64.55-1.36.82-2.18.82s-1.51-.27-2.18-.82c-.67-.55-1.01-1.25-1.01-2.1ZM153.96,49.02h5.47v22.26h-5.47v-22.26Z"/>
    <path class="uuid-02810e18-f48d-4b82-97d9-8d89d4a99e39" d="M171.03,49.02l.48,5.1-.21-.69c.74-1.59,1.89-2.88,3.45-3.85,1.56-.97,3.4-1.46,5.52-1.46s3.82.62,5.18,1.86c1.36,1.24,2.06,2.85,2.1,4.83v16.47h-5.47v-14.55c-.04-1.13-.37-2.06-1.01-2.79-.64-.73-1.63-1.11-2.97-1.14-1.2,0-2.3.36-3.29,1.09-.99.73-1.77,1.71-2.34,2.95-.57,1.24-.85,2.67-.85,4.3v10.15h-5.47v-22.26h4.89Z"/>
    <path class="uuid-02810e18-f48d-4b82-97d9-8d89d4a99e39" d="M194.42,82l-3.19-3.4c.99-.85,1.77-1.89,2.34-3.11.57-1.22.85-2.66.85-4.33v-22.15h5.52v22.36c0,2.55-.43,4.69-1.3,6.43-.87,1.73-2.28,3.13-4.22,4.2ZM194.05,41.05c0-.85.34-1.56,1.01-2.12.67-.57,1.4-.85,2.18-.85s1.54.28,2.18.85c.64.57.96,1.27.96,2.12s-.32,1.55-.96,2.1c-.64.55-1.36.82-2.18.82s-1.51-.27-2.18-.82c-.67-.55-1.01-1.25-1.01-2.1Z"/>
    <path class="uuid-02810e18-f48d-4b82-97d9-8d89d4a99e39" d="M216.24,71.8c-2.09,0-3.98-.43-5.68-1.3-1.7-.87-3.05-2.17-4.04-3.9-.99-1.73-1.49-3.88-1.49-6.43s.52-4.67,1.57-6.48c1.04-1.81,2.42-3.2,4.14-4.17,1.72-.97,3.59-1.46,5.6-1.46,2.12,0,3.87.45,5.23,1.35,1.36.9,2.43,1.96,3.21,3.16l-.37.85.53-4.41h5.05v22.26h-5.47v-5.58l.58,1.33c-.14.28-.44.68-.9,1.2-.46.51-1.07,1.05-1.83,1.62-.76.57-1.65,1.04-2.66,1.41-1.01.37-2.17.56-3.48.56ZM217.73,67.34c1.17,0,2.21-.21,3.13-.64.92-.42,1.7-1.03,2.34-1.81.64-.78,1.08-1.7,1.33-2.76v-4.62c-.28-.99-.76-1.85-1.43-2.58-.67-.73-1.48-1.3-2.42-1.73-.94-.42-1.97-.64-3.11-.64-1.27,0-2.44.31-3.51.93-1.06.62-1.91,1.48-2.55,2.58-.64,1.1-.96,2.37-.96,3.82s.33,2.64.98,3.77c.65,1.13,1.53,2.03,2.63,2.68,1.1.66,2.28.98,3.56.98Z"/>
    <path class="uuid-02810e18-f48d-4b82-97d9-8d89d4a99e39" d="M230.1,32.71h25.71v5.47h-10.15v33.09h-5.68v-33.09h-9.88v-5.47Z"/>
    <path class="uuid-02810e18-f48d-4b82-97d9-8d89d4a99e39" d="M267.72,71.8c-2.59,0-4.8-.5-6.64-1.51-1.84-1.01-3.26-2.41-4.25-4.2-.99-1.79-1.49-3.83-1.49-6.14s.56-4.19,1.67-5.98c1.12-1.79,2.62-3.21,4.51-4.28s3.99-1.59,6.29-1.59c2.97,0,5.44.87,7.41,2.6,1.97,1.74,3.28,4.16,3.96,7.28l-18.11,6.27-1.27-3.19,14.5-5.21-1.12.69c-.42-1.1-1.1-2.06-2.02-2.9-.92-.83-2.18-1.25-3.77-1.25-1.27,0-2.42.31-3.43.93-1.01.62-1.81,1.47-2.39,2.55-.58,1.08-.88,2.35-.88,3.8s.31,2.79.93,3.9c.62,1.12,1.47,1.99,2.55,2.63,1.08.64,2.29.96,3.64.96.96,0,1.87-.18,2.74-.53.87-.35,1.69-.8,2.47-1.33l2.5,4.04c-1.17.74-2.44,1.34-3.8,1.78-1.36.44-2.7.66-4.01.66Z"/>
    <path class="uuid-02810e18-f48d-4b82-97d9-8d89d4a99e39" d="M302.68,69.2c-.99.82-2.19,1.45-3.59,1.91-1.4.46-2.81.69-4.22.69-2.44,0-4.59-.48-6.45-1.43-1.86-.96-3.3-2.3-4.33-4.04-1.03-1.73-1.54-3.81-1.54-6.21s.55-4.43,1.65-6.19c1.1-1.75,2.55-3.1,4.36-4.04,1.81-.94,3.72-1.41,5.74-1.41,1.84,0,3.47.25,4.89.74,1.42.5,2.64,1.19,3.66,2.07l-2.71,3.56c-.6-.5-1.35-.94-2.26-1.33-.9-.39-1.94-.58-3.11-.58-1.24,0-2.37.31-3.4.93-1.03.62-1.84,1.47-2.44,2.55-.6,1.08-.9,2.31-.9,3.69s.31,2.52.93,3.64c.62,1.12,1.48,1.99,2.58,2.63,1.1.64,2.35.96,3.77.96.92,0,1.77-.13,2.55-.4.78-.27,1.47-.65,2.07-1.14l2.76,3.4Z"/>
    <path class="uuid-02810e18-f48d-4b82-97d9-8d89d4a99e39" d="M307.07,71.27V30h5.31v24.06l-.05-.9c.74-1.45,1.88-2.66,3.4-3.61,1.52-.96,3.35-1.43,5.47-1.43s3.82.62,5.18,1.86c1.36,1.24,2.06,2.85,2.1,4.83v16.47h-5.47v-14.55c-.04-1.13-.37-2.06-1.01-2.79-.64-.73-1.63-1.11-2.97-1.14-1.2,0-2.3.36-3.29,1.09-.99.73-1.77,1.72-2.34,2.97-.57,1.26-.85,2.68-.85,4.28v10.15h-5.47Z"/>
    <path class="uuid-02810e18-f48d-4b82-97d9-8d89d4a99e39" d="M351.05,71.27l16.94-40.1h.32l16.94,40.1h-6.48l-12.32-31.23,4.09-2.71-13.92,33.94h-5.58ZM361.36,56.82h13.7l1.97,4.89h-17.37l1.7-4.89Z"/>
    <path class="uuid-02810e18-f48d-4b82-97d9-8d89d4a99e39" d="M390.57,32.71h5.68v38.56h-5.68v-38.56Z"/>
  </g>
  <g>
    <path class="uuid-29d2deb1-dc3d-444b-94e2-1db1ebade9f9" d="M48,24c-9.98,0-18.89,2.8-24.76,8.38-.26-.34-.48-.64-.62-.86-.89-1.41-1.92-3.06-2.67-4.73-.14-.31-.26-.6-.36-.87.65.16,1.42.27,2.26.22.8-.05,1.65-.32,2.42-.9.73-.55,1.16-1.21,1.4-1.73.45-.96.49-1.91.49-2.49,0-1.26-.31-2.74-.66-4.08-.72-2.78-2.14-12.82-3.01-14.93l-6.34,9.78c.71,1.73,1.63,4.2,2.26,6.39-.15-.03-.3-.06-.46-.07-.59-.07-1.46-.09-2.43.26-2.36.85-3.13,2.94-3.37,4.24-.49,2.67.43,5.36,1.32,7.34.93,2.07,1.87,2.87,1.87,2.87l2.57,2.97,1.55,1.38c-1.23,2.04-2.18,4.31-2.75,6.83-1.31-.67-2.85-1.46-4.19-2.34-.25-.16-.48-.32-.69-.48.53-.1,1.13-.27,1.68-.58.53-.29.99-.75,1.24-1.39.24-.61.21-1.19.12-1.63-.16-.8-.6-1.46-.89-1.85-.63-.85-1.57-1.76-2.47-2.55-1.87-1.65-7.83-8.01-9.48-9.16l.42,8.68c1.35.95,3.21,2.32,4.73,3.61-.12.03-.24.06-.36.1-.45.14-1.06.41-1.56.96-1.22,1.34-.72,3.01-.25,3.96.98,1.97,2.95,3.5,4.55,4.55,1.67,1.1,2.72,1.34,2.72,1.34l3.26,1.18.58.14c-.03.58-.09,1.15-.09,1.76,0,17.53,14.33,35.71,32,35.71s32-18.18,32-35.71-14.33-26.29-32-26.29Z"/>
    <path class="uuid-ec4ea8cc-9aaa-4ec2-b1f3-295c83e56b55" d="M25.76,71c-4.01-5.69-6.41-12.63-6.41-19.46,0-15.84,12.9-23.75,28.81-23.75,9.91,0,18.66,3.07,23.84,9.22-4.92-7.34-14.36-11.01-25.19-11.01-15.91,0-28.81,7.91-28.81,23.75,0,7.57,2.95,15.27,7.76,21.25Z"/>
    <path class="uuid-9ba0f7f2-b44c-42a5-8ea5-5c47643666f1" d="M74.5,51.15c0,11.46-13.02,22.85-26.5,22.85s-26.5-11.39-26.5-22.85,13.02-8.91,26.5-8.91,26.5-2.54,26.5,8.91Z"/>
    <path class="uuid-4f23184c-c932-4b69-aee8-81e8ca3cb2a3" d="M69.68,51.84c1.12,2.86-1.24,6.27-5.27,7.61-4.03,1.35-8.21.12-9.34-2.74-1.12-2.86,1.14-4.04,5.17-5.39,4.03-1.35,8.31-2.34,9.44.52ZM26.32,51.84c-1.12,2.86,1.24,6.27,5.27,7.61,4.03,1.35,8.21.12,9.34-2.74,1.12-2.86-1.14-4.04-5.17-5.39-4.03-1.35-8.31-2.34-9.44.52Z"/>
    <rect class="uuid-ea84345e-b652-4b45-903d-3afb32bd7af2" width="96" height="96"/>
  </g>
</svg>
