<svg width="112" height="32" viewBox="0 0 112 32" fill="none" xmlns="http://www.w3.org/2000/svg">
<path d="M0.111467 0.40409C1.25138 2.02881 3.70259 5.66526 4.84268 7.28998C7.14823 10.5739 9.45105 13.8578 11.7511 17.1417C13.5511 19.7035 15.3481 22.2653 17.1423 24.8271C17.348 25.1194 17.5536 25.4116 17.7508 25.6954C17.7744 25.7286 17.8002 25.7602 17.828 25.7899C17.9553 25.9782 18.122 26.1365 18.3165 26.2541C18.6571 26.4588 19.0639 26.5231 19.451 26.4332C19.8381 26.3434 20.175 26.1065 20.3906 25.7727C20.4164 25.7469 20.4335 25.7126 20.4593 25.6866C22.0363 23.4687 23.6162 21.2479 25.199 19.0242C25.3548 18.7967 25.4356 18.5262 25.4301 18.2505C25.4524 17.9595 25.3705 17.67 25.199 17.4338C23.7419 15.4222 22.2849 13.4077 20.8278 11.3904C18.8392 8.64826 16.8535 5.90313 14.8708 3.15503H20.4676C22.2846 5.45039 24.1045 7.74284 25.9274 10.0324C26.4845 10.7373 27.0417 11.4336 27.5985 12.1385C27.6251 12.1796 27.6568 12.2171 27.6927 12.2503C27.7105 12.2761 27.727 12.2934 27.7441 12.3191C27.8742 12.4723 28.0376 12.5937 28.2218 12.6741C28.4059 12.7546 28.606 12.7919 28.8068 12.7833C28.9371 12.7831 29.0668 12.7658 29.1926 12.7318C29.4823 12.6665 29.7489 12.5239 29.964 12.3191C30.0559 12.2258 30.1365 12.1219 30.204 12.0096L30.2125 12.0011L35.6726 4.34135C36.1349 3.69654 36.5898 3.05192 37.0525 2.40712C37.1717 2.22816 37.2477 2.02396 37.2745 1.81062C37.3013 1.59729 37.2781 1.38064 37.2069 1.17778C37.117 0.842863 36.9202 0.546501 36.6463 0.333866C36.3723 0.12123 36.0364 0.00398482 35.6897 0L26.9473 0L28.833 3.14668H32.673C31.4045 4.92624 30.1444 6.69709 28.876 8.47665C28.8417 8.51967 28.8161 8.56269 28.7818 8.60553C27.239 6.66266 25.6991 4.72268 24.162 2.78561C23.6477 2.14081 23.1336 1.48783 22.6193 0.842669C22.5127 0.645953 22.3668 0.473296 22.1906 0.335468C22.1011 0.259165 21.9997 0.198084 21.8904 0.154667C21.6869 0.0578847 21.4643 0.00794897 21.239 0.00853336H11.8279C11.4512 0.0124604 11.0881 0.150456 10.8038 0.397786C10.5195 0.645115 10.3327 0.985606 10.2767 1.35823C10.2337 1.53708 10.2291 1.72299 10.263 1.90376C10.297 2.08453 10.3688 2.25607 10.4738 2.40712C11.9309 4.41874 13.3878 6.4332 14.8445 8.45051C17.0386 11.4846 19.2328 14.5164 21.4271 17.5458C21.5899 17.778 21.7613 18.0015 21.9249 18.2337C20.9906 19.5492 20.0564 20.8616 19.1222 22.1709C18.428 21.1908 17.7423 20.2022 17.048 19.2223C14.7423 15.9382 12.4394 12.6543 10.1396 9.37034C8.46847 6.98046 5.47699 2.58756 3.79699 0.196978H0C0.0282035 0.270472 0.0656611 0.34007 0.111467 0.40409Z" fill="#401CEB"/>
<path fill-rule="evenodd" clip-rule="evenodd" d="M47.9918 19.5999H35.4492C35.5632 21.1582 36.1617 22.4172 37.2447 23.377C38.3278 24.3368 39.6961 24.8168 41.3496 24.817C42.23 24.8271 43.1031 24.6573 43.9155 24.3182C44.6921 23.9875 45.384 23.4856 45.9395 22.8501L47.0798 24.1614C46.4093 24.9635 45.5531 25.5897 44.5856 25.9857C43.5411 26.4129 42.4215 26.6262 41.2931 26.6129C39.8678 26.6408 38.4593 26.3021 37.2024 25.6295C36.0401 24.9988 35.0773 24.0557 34.4229 22.9066C33.7473 21.707 33.4029 20.3493 33.4252 18.9727C33.4025 17.6012 33.7312 16.2467 34.3802 15.0381C34.9869 13.9103 35.8948 12.9731 37.0028 12.3309C38.1427 11.6773 39.4375 11.3425 40.7514 11.3617C42.0611 11.3412 43.3518 11.6762 44.4862 12.3309C45.5834 12.9717 46.4813 13.9043 47.0803 15.0248C47.7234 16.2399 48.047 17.5984 48.021 18.9729L47.9918 19.5999ZM40.7512 13.1004C39.307 13.1004 38.0955 13.5612 37.1167 14.4829C36.138 15.4047 35.5822 16.6067 35.4492 18.089H46.0819C45.9489 16.6067 45.3931 15.4047 44.4144 14.4829C43.4356 13.5612 42.2146 13.1004 40.7512 13.1004ZM54.0921 14.4117C54.5332 13.4408 55.2788 12.6402 56.2158 12.1311C57.1565 11.618 58.3205 11.3615 59.7077 11.3615V13.3286L59.2231 13.3002C57.6458 13.3002 56.4105 13.7848 55.5173 14.7541C54.6242 15.7233 54.1776 17.0821 54.1776 18.8305V26.4693H52.1538V11.4756H54.0916L54.0921 14.4117ZM71.0818 11.3617C72.4163 11.3436 73.7326 11.6727 74.9016 12.3167C76.0317 12.9431 76.9608 13.8772 77.5812 15.0106C78.2413 16.2254 78.5752 17.5906 78.5505 18.9729C78.5775 20.3645 78.2435 21.7395 77.5812 22.9637C76.9636 24.0942 76.0398 25.0278 74.916 25.6576C73.7431 26.3049 72.4213 26.6342 71.0818 26.6126C69.9395 26.6297 68.81 26.3706 67.7894 25.8572C66.8044 25.3478 65.9729 24.5852 65.3805 23.6478V32H63.3566V11.4756H65.2944V14.4403C65.8769 13.4765 66.7096 12.6884 67.704 12.1599C68.7461 11.6171 69.907 11.3427 71.0818 11.3617ZM70.9396 24.8159C71.9372 24.8282 72.9204 24.5775 73.7903 24.089C74.6435 23.6061 75.3406 22.8889 75.7992 22.0223C76.2949 21.0832 76.545 20.034 76.5261 18.9722C76.5462 17.9148 76.296 16.8699 75.7992 15.9363C75.3352 15.0737 74.6394 14.3579 73.7903 13.8696C72.9162 13.3835 71.9327 13.1285 70.9326 13.1285C69.9325 13.1285 68.9489 13.3835 68.0749 13.8696C67.2317 14.3611 66.5411 15.0764 66.0795 15.9363C65.5826 16.8699 65.3324 17.9148 65.3526 18.9722C65.3337 20.034 65.5837 21.0832 66.0795 22.0223C66.5357 22.8862 67.2276 23.6028 68.0749 24.089C68.9485 24.5809 69.9372 24.8317 70.9396 24.8159ZM95.7397 19.5999H83.1969C83.3109 21.1582 83.9094 22.4172 84.9925 23.377C86.0755 24.3368 87.4438 24.8168 89.0974 24.817C89.9776 24.8271 90.8507 24.6573 91.6631 24.3182C92.4397 23.9875 93.1316 23.4856 93.6871 22.8501L94.8273 24.1614C94.1568 24.9635 93.3006 25.5897 92.3331 25.9857C91.2886 26.4129 90.169 26.6262 89.0406 26.6129C87.6154 26.6408 86.2068 26.3021 84.95 25.6295C83.7877 24.9988 82.825 24.0556 82.1706 22.9066C81.495 21.707 81.1507 20.3493 81.1729 18.9727C81.1502 17.6012 81.479 16.2467 82.1279 15.0381C82.7344 13.91 83.6424 12.9725 84.7505 12.33C85.8904 11.6765 87.1851 11.3417 88.499 11.3608C89.8084 11.3405 91.0989 11.6754 92.2332 12.33C93.3303 12.9709 94.2282 13.9034 94.8271 15.0239C95.4702 16.239 95.7939 17.5975 95.7678 18.972L95.7397 19.5999ZM88.499 13.1004C87.0547 13.1004 85.8432 13.5612 84.8645 14.4829C83.8857 15.4047 83.3299 16.6067 83.1969 18.089H93.8296C93.6967 16.6067 93.1408 15.4047 92.1621 14.4829C91.1833 13.5612 89.9623 13.1004 88.499 13.1004ZM109.023 26.4693L104.263 20.1985L99.473 26.4693H97.1934L103.123 18.7733L97.4784 11.4756H99.7589L104.263 17.3478L108.767 11.4756H110.99L105.346 18.7733L111.332 26.4693H109.023Z" fill="#401CEB"/>
</svg>
